# xmcd
#
# Track frame offsets:
#	150
#	11439
#	20472
#	32662
#	43414
#	55639
#	65844
#	79549
#	89963
#	100358
#	112328
#	126103
#	135256
#	147109
#	158594
#	170641
#	189247
#	203266
#	216501
#	224243
#
# Disc length: 3152 seconds
#
# Revision: 0
# Processed by: cddbd v1.5.2PL0 Copyright (c) Steve Scherf et al.
# Submitted via: dBpowerAMP V4.0
#
DISCID=260c4e14
DTITLE=100 tubes country - 100 tubes country - CD2
DYEAR=1900
DGENRE=Country
TTITLE0=Elvis Presley - I Forgot To Remember To Forget
TTITLE1=The Everly Brothers - Crying in the rain
TTITLE2=Hank Williams - You're Cheating Heart
TTITLE3=Ferlin Husky - Wings of a Dove
TTITLE4=Porter Wagoner - Green Green Grass of Home
TTITLE5=Chet Atkins - Country Gentleman
TTITLE6=Red Foley and Ernest Tubb - Goodnight Irene
TTITLE7=Don Gibson - Oh Lonesome Me
TTITLE8=Patsy Cline - Three Cigarettes In an Ashtray
TTITLE9=Burl Ives - Funny Way of Laughin'
TTITLE10=Johnny Paycheck - Someone To Give My Love To
TTITLE11=Mickey Gilley - Suzie Q
TTITLE12=Jim Reeves - Mexican Joe
TTITLE13=Kenny Rogers - Me and Bobby McGee
TTITLE14=Freddy Fender - Before the Next Teardrop Falls
TTITLE15=Alabama - I Wanna Be With You Tonight
TTITLE16=Tex Ritter - Fool's Paradise
TTITLE17=Vaugn Montoe - Riders In the Sky
TTITLE18=Dolly Parton - Puppy Love
TTITLE19=Johnny Cash - I Walk the Line
EXTD=
EXTT0=
EXTT1=
EXTT2=
EXTT3=
EXTT4=
EXTT5=
EXTT6=
EXTT7=
EXTT8=
EXTT9=
EXTT10=
EXTT11=
EXTT12=
EXTT13=
EXTT14=
EXTT15=
EXTT16=
EXTT17=
EXTT18=
EXTT19=
PLAYORDER=
